<mxfile host="app.diagrams.net" modified="2024-08-18T15:07:41.830Z" agent="Mozilla/5.0 (Windows NT 10.0; Win64; x64) AppleWebKit/537.36 (KHTML, like Gecko) Chrome/127.0.0.0 Safari/537.36" version="24.7.3" etag="jKPaakfFq5-addQe3Fvb" type="github">
  <diagram name="Page-1" id="bv9JPhEA_4FrqdAdM81M">
    <mxGraphModel>
      <root>
        <mxCell id="0" />
        <mxCell id="1" parent="0" />
      </root>
    </mxGraphModel>
  </diagram>
</mxfile>
